<svg id="Layer_1" data-name="Layer 1" xmlns="http://www.w3.org/2000/svg" viewBox="0 0 1024 1024"><defs><style>.cls-1{fill:#fe4337;}.cls-2{fill:#fefefe;}</style></defs><title>icon</title><path class="cls-1" d="M510,1008.57c-88.82-2.3-180,1.46-271.24-5.13C106.44,993.88,27.56,916.55,19.19,785.13,9,624.37,15.5,463.53,14.9,302.74c-0.13-33.8,3.58-68.07,9.7-101.36C43.72,97.45,116.53,31,222.88,24.42a4657.57,4657.57,0,0,1,578.12,0c117.34,7.32,194.35,89.23,203.67,207,10.51,132.88,3.39,265.9,5.75,398.84,1,54.67-1.69,109.16-5.73,163.69C995.69,915.23,915,993.38,792.22,1003,698.93,1010.28,605.67,1006.67,510,1008.57Z"/><path class="cls-2" d="M211.83,491.32c0.13-74.2,56.66-135.12,131.27-138.24,21-.88,27-5.24,28.42-27.09,5-77.1,67-134,140.95-132.91C588,194.24,646.9,250.78,649.91,328.64c0.89,23.09,11.14,23.28,28.54,24.12,70.79,3.44,128,59.57,132.43,128.28,4.54,70.65-42.29,132.56-111.7,146.64-9.63,2-26.32,10.16-26.4-8.11-0.06-15.1-14.59-37.17,15.72-45.1,42.21-11,64.83-38.18,67.62-74.84,2.76-36.29-14.9-68.47-46.26-84.28C677,398.83,641.19,404.75,609.28,432c-63.27,54-132.8,53.85-196.59-.4-31.65-26.92-68.16-32.73-100.65-16-31.07,16-51.2,51.22-46.31,84.41,5.84,39.66,28.25,66.35,68.3,74.73,31.3,6.55,15.1,29.67,15.8,44.6,0.9,19.39-16.38,10.39-25.6,8.65C258.3,615.52,211.71,558.36,211.83,491.32Z"/><path class="cls-2" d="M371.64,487.4c39.26,17.94,76.16,33.71,112,51.6,18,9,32.87,10.82,51.89.93,35.6-18.5,73-33.58,115.27-52.62,0,24.52,0,45.39,0,66.25,0,62.85-.54,125.72.34,188.56,0.25,17.54-4.56,27.39-21.53,35.49-120.81,57.68-120.23,57.31-241.22-1.82-27.56-13.47-17.8-34.5-16.39-52.72,1-12.93,12.89-3.87,19.35-1,30.23,13.47,61,26.08,90,41.73,20.47,11,38.1,11.78,58,0,13.24-7.87,27.92-13.49,42.3-19.26,10.84-4.35,16.35-10.62,16.21-23q-0.79-68,0-136c0.2-15.54-6.1-19.62-17.77-10.74-53.53,40.75-103.58,22.78-153.35-7.45-4.39-2.66-9.34-4.42-14-6.56C369.14,540.9,369.14,540.9,371.64,487.4Z"/><path class="cls-1" d="M425.41,334c-0.74-47.68,38-86.74,86-86.73,46.14,0,85.19,38.13,86.1,84,0.92,46.37-39.73,87.3-86.54,87.12C464.78,418.25,426.13,380.11,425.41,334Z"/></svg>